# xmcd CD database file
#
# Track frame offsets:
#	150
#	26827
#	56777
#	79242
#	116082
#	148497
#	182455
#	206205
#	230950
#	264687
#	284422
#
# Disc length: 4005 seconds
#
# Revision: 1
# Processed by: cddbd v1.5.1PL0 Copyright (c) Steve Scherf et al.
# Submitted via: CDex 1.50
#
DISCID=b70fa30b
DTITLE=James Moody - Homage
DYEAR=2004
DGENRE=Jazz
TTITLE0=A Message To Moody
TTITLE1=Lazy Afternoon
TTITLE2=Into The Shadows
TTITLE3=Main Title: Glengarry, Glenross
TTITLE4=Simplicity And Beauty
TTITLE5=We All Love Moody
TTITLE6=Moody Tune
TTITLE7=And Then Again
TTITLE8=Homage
TTITLE9=When Lucy Smiles At Me
TTITLE10=Love Was The Cause For All Good Things
EXTD=YEAR: 2004
EXTT0=
EXTT1=
EXTT2=
EXTT3=
EXTT4=
EXTT5=
EXTT6=
EXTT7=
EXTT8=
EXTT9=
EXTT10=
PLAYORDER=
